<svg width="90" height="90" viewBox="0 0 90 90" fill="none" xmlns="http://www.w3.org/2000/svg">
<rect width="90" height="90" rx="45" fill="white"/>
<path d="M45.0041 20C46.4702 20 47.6546 21.3965 47.6546 23.125V36.0254C47.6546 37.627 48.3503 39.1211 49.4933 39.9805L50.305 40.5859V36.1426C50.305 32.4023 52.8726 29.375 56.0448 29.375C57.8421 29.375 59.5897 30.3711 60.6664 32.1875C61.9419 34.3457 64.3356 38.5742 66.547 43.6035C68.7419 48.5742 70.8871 54.5898 71.4834 60.2344C71.5 60.3613 71.5 60.4883 71.5 60.625V61.3086C71.5 66.1035 68.2035 70 64.1285 70C63.5239 70 62.9276 69.9121 62.3395 69.7363L56.3181 67.959C52.7897 66.9238 50.305 63.1738 50.305 58.8672V51.7383L57.8007 57.3633C58.4219 57.8223 59.2336 57.6074 59.6311 56.8848C60.0287 56.1621 59.8382 55.1953 59.2253 54.7266L50.305 48.0371V47.998L46.6524 45.2539C46.0477 44.8047 45.5011 44.2676 45.0041 43.6816C44.5155 44.2676 43.9605 44.8047 43.3559 45.2539L39.7033 47.998L31.8515 53.8867L30.7333 54.7266C30.7333 54.7266 30.7333 54.7266 30.725 54.7266C30.1121 55.1953 29.9299 56.1523 30.3275 56.8848C30.7168 57.6172 31.5367 57.832 32.1579 57.3633L39.7033 51.6992V58.8672C39.7033 63.1738 37.2185 66.9238 33.6819 67.959L27.6605 69.7363C27.0724 69.9121 26.4761 70 25.8715 70C21.8047 70 18.5 66.1133 18.5 61.3086V60.625C18.5 60.498 18.5083 60.3613 18.5166 60.2344C19.1129 54.5801 21.2581 48.5742 23.453 43.6035C25.6727 38.5742 28.0581 34.3457 29.3336 32.1875C30.4103 30.3711 32.1496 29.375 33.9552 29.375C37.1357 29.375 39.7033 32.4023 39.7033 36.1426V40.5859L40.515 39.9805C41.658 39.1211 42.3537 37.627 42.3537 36.0254V23.125C42.3537 21.3965 43.5381 20 45.0041 20Z" fill="#069094"/>
</svg>
